<svg width="117" height="35" xmlns="http://www.w3.org/2000/svg" fill="none">
 <title>NVIDIA 在人工智慧領域的領先地位</title>

 <g>
  <title>Layer 1</title>
  <path id="svg_1" fill="black" d="m66.4201,15.476l0,13.762l3.8236,0l0,-13.762l-3.8236,0zm-30.0724,-0.0187l0,13.7807l3.8568,0l0,-10.6972l3.0089,0.0105c0.9892,0 1.6743,0.2415 2.1505,0.7584c0.6047,0.6556 0.8515,1.7115 0.8515,3.6435l0,6.2848l3.7364,0l0,-7.6137c0,-5.4343 -3.4071,-6.167 -6.7396,-6.167l-6.8645,0zm36.2278,0.0187l0,13.7608l6.2002,0c3.3038,0 4.3813,-0.5588 5.5484,-1.8106c0.8239,-0.8797 1.3563,-2.8094 1.3563,-4.9187c0,-1.9343 -0.4509,-3.6598 -1.237,-4.7343c-1.4161,-1.9215 -3.4564,-2.2972 -6.5031,-2.2972l-5.3648,0zm3.7915,2.996l1.6433,0c2.3846,0 3.9269,1.0885 3.9269,3.913c0,2.8245 -1.5423,3.9142 -3.9269,3.9142l-1.6433,0l0,-7.8272zm-15.4585,-2.996l-3.1902,10.906l-3.057,-10.906l-4.1266,0l4.3664,13.7608l5.5093,0l4.4009,-13.7608l-3.9017,0l-0.0011,0zm26.5506,13.7608l3.8236,0l0,-13.7608l-3.8247,0l0,13.7608l0.0011,0zm10.7169,-13.7561l-5.3383,13.7515l3.7696,0l0.8446,-2.4302l6.3171,0l0.8,2.4302l4.092,0l-5.378,-13.7527l-5.107,0l0,0.0012zm2.481,2.5095l2.316,6.4423l-4.7052,0l2.3892,-6.4423z"/>
  <path id="svg_2" fill="#76B900" d="m11.6925,17.7697l0,-1.8935c0.1813,-0.0129 0.3638,-0.0234 0.5497,-0.0292c5.095,-0.1633 8.4378,4.4508 8.4378,4.4508c0,0 -3.6101,5.0984 -7.4808,5.0984c-0.5577,0 -1.0569,-0.091 -1.5067,-0.2451l0,-5.7434c1.9841,0.2438 2.3823,1.134 3.5746,3.1546l2.6519,-2.2738c0,0 -1.9359,-2.5818 -5.1995,-2.5818c-0.3546,0 -0.6942,0.0256 -1.0282,0.0618l0.0012,0.0012zm-0.0012,-6.2569l0,2.8292c0.1825,-0.0152 0.3661,-0.0268 0.5497,-0.0338c7.0849,-0.2427 11.7015,5.908 11.7015,5.908c0,0 -5.3017,6.5543 -10.8259,6.5543c-0.5061,0 -0.98,-0.0478 -1.4253,-0.1272l0,1.7489c0.381,0.049 0.7758,0.0781 1.1866,0.0781c5.1398,0 8.8579,-2.6682 12.4577,-5.8275c0.5967,0.4853 3.0398,1.6672 3.5425,2.1852c-3.4232,2.9132 -11.3986,5.2605 -15.921,5.2605c-0.4361,0 -0.8549,-0.0268 -1.2658,-0.0665l0,2.457l19.5369,0l0,-20.965l-19.5357,0l-0.0012,-0.0012zm0,13.6372l0,1.4933c-4.75422,-0.8621 -6.0739,-5.8858 -6.0739,-5.8858c0,0 2.28246,-2.5713 6.0739,-2.9878l0,1.638c0,0 -0.0046,0 -0.0068,0c-1.98988,-0.2427 -3.54365,1.6473 -3.54365,1.6473c0,0 0.87098,3.1815 3.55165,4.0973l-0.0012,-0.0023zm-8.44242,-4.6083c0,0 2.81721,-4.2269 8.44362,-4.6644l0,-1.533c-6.23116,0.5087 -11.62805,5.8742 -11.62805,5.8742c0,0 3.05591,8.9833 11.62805,9.8058l0,-1.6298c-6.29083,-0.805 -8.44362,-7.8528 -8.44362,-7.8528z"/>
 </g>
</svg>