<svg xmlns="http://www.w3.org/2000/svg" viewBox="0 0 376 158">
  <defs>
    <style>
      #hms-main {
      fill: #323232;
      }
      #hms-bezel {
      fill: #000000;
      }
      #hms-display {
      fill: #555555;
      }
      #hms-outline {
      fill: #313131;
      }
      #lc-main {
      fill: #323232;
      }
      #lc-sub {
      fill: #aaaaaa
      }
      #lc-outline {
      fill: #313131;
      }
      #lc-stick {
      fill: #323232;
      }
      #lc-accent {
      fill: #9be1e6;
      }
      #rc-main {
      fill: #323232;
      }
      #rc-sub {
      fill: #aaaaaa;
      }
      #rc-outline {
      fill: #313131;
      }
      #rc-stick {
      fill: #323232;
      }
      #rc-accent {
      fill: #ff8c5f;
      }
      #hms-borderline{
      opacity:0.2;
      }
    </style>
  </defs>
  <g id="Icon_BEE_regular">
    <path id="lc-main" class="cls-1"
      d="M48.167,0C19,0,0,13,0,59.75v38.5C0,145,19,158,48.167,158H58V0Z" />
    <path id="lc-outline" class="cls-2"
      d="M48.167,0C19,0,0,13,0,59.75v38.5C0,145,19,158,48.167,158H58v-3H48.167c-15.222,0-25.649-3.616-32.817-11.379C7.04,134.62,3,119.779,3,98.25V59.75C3,38.221,7.04,23.38,15.35,14.379,22.518,6.616,32.945,3,48.167,3H58V0Z" />
    <g id="lc-sub">
      <rect class="cls-3" x="33" y="17" width="17" height="5" />
      <path class="cls-3" d="M30,72.25A5.75,5.75,0,1,0,35.75,78,5.746,5.746,0,0,0,30,72.25Z" />
      <path class="cls-3" d="M42,84.25A5.75,5.75,0,1,0,47.75,90,5.748,5.748,0,0,0,42,84.25Z" />
      <path class="cls-3" d="M18,84.25A5.75,5.75,0,1,0,23.75,90,5.748,5.748,0,0,0,18,84.25Z" />
      <path class="cls-3" d="M30,96.25A5.75,5.75,0,1,0,35.75,102,5.746,5.746,0,0,0,30,96.25Z" />
    </g>
    <path id="lc-stick" class="cls-1"
      d="M28.543,57.906a11,11,0,1,0-9.456-9.5A11.006,11.006,0,0,0,28.543,57.906Z" />
    <path id="lc-accent" class="cls-3"
      d="M30,36a11.469,11.469,0,0,1,1.423.089A11,11,0,0,1,30,58a11.5,11.5,0,0,1-1.459-.094A11,11,0,0,1,30,36m0-3A14,14,0,0,0,28.16,60.881,14.444,14.444,0,0,0,30,61a14,14,0,0,0,1.8-27.888A14.625,14.625,0,0,0,30,33Z" />
    <path id="rc-main" class="cls-1"
      d="M327.833,0H318V158h9.833C357,158,376,145,376,98.25V59.75C376,13,357,0,327.833,0Z" />
    <g id="rc-sub">
      <path class="cls-3"
        d="M346,34.25A5.75,5.75,0,1,0,351.75,40,5.746,5.746,0,0,0,346,34.25Z" />
      <path class="cls-3"
        d="M358,46.25A5.75,5.75,0,1,0,363.75,52,5.748,5.748,0,0,0,358,46.25Z" />
      <path class="cls-3"
        d="M334,46.25A5.75,5.75,0,1,0,339.75,52,5.748,5.748,0,0,0,334,46.25Z" />
      <path class="cls-3"
        d="M346,58.25A5.75,5.75,0,1,0,351.75,64,5.746,5.746,0,0,0,346,58.25Z" />
      <polygon class="cls-3"
        points="332 28 337 28 337 22 343 22 343 17 337 17 337 11 332 11 332 17 326 17 326 22 332 22 332 28" />
    </g>
    <path id="rc-stick" class="cls-1"
      d="M344.543,105.906a11,11,0,1,0-9.456-9.5A11.006,11.006,0,0,0,344.543,105.906Z" />
    <path id="rc-accent" class="cls-3"
      d="M346,84a11.469,11.469,0,0,1,1.423.089A11,11,0,0,1,346,106a11.5,11.5,0,0,1-1.459-.094A11,11,0,0,1,346,84m0-3a14,14,0,0,0-1.842,27.881A14.444,14.444,0,0,0,346,109a14,14,0,0,0,1.8-27.887A14.431,14.431,0,0,0,346,81Z" />
    <path id="rc-outline" class="cls-2"
      d="M327.833,0H318V3h9.833c15.222,0,25.649,3.616,32.817,11.379,8.31,9,12.35,23.842,12.35,45.371v38.5c0,21.529-4.04,36.37-12.35,45.371C353.482,151.384,343.055,155,327.833,155H318v3h9.833C357,158,376,145,376,98.25V59.75C376,13,357,0,327.833,0Z" />
    <rect id="hms-main" class="cls-1" x="55" width="266" height="158" />
    <g id="hms-bezel">
      <rect x="62" y="7" width="252" height="144" />
    </g>
    <g id="hms-display">
      <rect class="cls-4" x="75" y="14" width="226" height="130" />
    </g>
    <g id="hms-outline">
      <polygon class="cls-2" points="55 0 55 3 59 3 59 3 318 3 321 3 321 0 55 0" />
      <polygon class="cls-2"
        points="58 155 58 155 55 155 55 158 321 158 321 155 318 155 58 155" />
    </g>
    <g id="hms-borderline">
      <rect class="cls-5" x="55" y="3" width="3" height="152" />
      <rect class="cls-5" x="318" y="3" width="3" height="152" />
    </g>
  </g>
</svg>